<svg width="100" height="100" viewBox="0 0 100 100" fill="none" xmlns="http://www.w3.org/2000/svg">
<g clip-path="url(#clip0_15_30)">
<path fill-rule="evenodd" clip-rule="evenodd" d="M33.3333 36.6667C33.3333 34.8283 31.8383 33.3333 30 33.3333C28.1617 33.3333 26.6667 34.8283 26.6667 36.6667C26.6667 38.505 28.1617 40 30 40C31.8383 40 33.3333 38.505 33.3333 36.6667ZM45 26.6667H21.6667C20.7467 26.6667 20 27.4117 20 28.3333V48.3333C20 49.255 20.7467 50 21.6667 50H25C25.92 50 26.6667 49.255 26.6667 48.3333C26.6667 47.4117 25.92 46.6667 25 46.6667H23.3333V30H43.3333V44.31L39.5117 40.4883C38.86 39.8367 37.8067 39.8367 37.155 40.4883L30.4883 47.155C29.8367 47.8067 29.8367 48.86 30.4883 49.5117C31.14 50.1633 32.1933 50.1633 32.845 49.5117L38.3333 44.0233L43.8217 49.5117C44.14 49.83 44.5667 50 45 50C45.215 50 45.4317 49.96 45.6383 49.8733C46.26 49.6167 46.6667 49.0067 46.6667 48.3333V28.3333C46.6667 27.4117 45.92 26.6667 45 26.6667ZM78.3333 56.6667H65C64.08 56.6667 63.3333 57.4117 63.3333 58.3333C63.3333 59.255 64.08 60 65 60H78.3333C79.2533 60 80 59.255 80 58.3333C80 57.4117 79.2533 56.6667 78.3333 56.6667ZM55 50H75C75.92 50 76.6667 49.255 76.6667 48.3333C76.6667 47.4117 75.92 46.6667 75 46.6667H55C54.08 46.6667 53.3333 47.4117 53.3333 48.3333C53.3333 49.255 54.08 50 55 50ZM71.6667 26.6667H55C54.08 26.6667 53.3333 27.4117 53.3333 28.3333C53.3333 29.255 54.08 30 55 30H71.6667C72.5867 30 73.3333 29.255 73.3333 28.3333C73.3333 27.4117 72.5867 26.6667 71.6667 26.6667ZM78.3333 36.6667H68.3333C67.4133 36.6667 66.6667 37.4117 66.6667 38.3333C66.6667 39.255 67.4133 40 68.3333 40H78.3333C79.2533 40 80 39.255 80 38.3333C80 37.4117 79.2533 36.6667 78.3333 36.6667ZM55 40H61.6667C62.5867 40 63.3333 39.255 63.3333 38.3333C63.3333 37.4117 62.5867 36.6667 61.6667 36.6667H55C54.08 36.6667 53.3333 37.4117 53.3333 38.3333C53.3333 39.255 54.08 40 55 40ZM46.6667 58.3333C46.6667 59.255 47.4133 60 48.3333 60H58.3333C59.2533 60 60 59.255 60 58.3333C60 57.4117 59.2533 56.6667 58.3333 56.6667H48.3333C47.4133 56.6667 46.6667 57.4117 46.6667 58.3333ZM21.6667 60H41.6667C42.5867 60 43.3333 59.255 43.3333 58.3333C43.3333 57.4117 42.5867 56.6667 41.6667 56.6667H21.6667C20.7467 56.6667 20 57.4117 20 58.3333C20 59.255 20.7467 60 21.6667 60ZM56.1783 90.4883C55.5267 89.8367 54.4733 89.8367 53.8217 90.4883C53.17 91.14 53.17 92.1933 53.8217 92.845L60.4883 99.5117C60.8133 99.8367 61.24 100 61.6667 100C62.0933 100 62.52 99.8367 62.845 99.5117C63.4967 98.86 63.4967 97.8067 62.845 97.155L56.1783 90.4883ZM50 80C49.08 80 48.3333 80.745 48.3333 81.6667V85.9767L37.155 97.155C36.5033 97.8067 36.5033 98.86 37.155 99.5117C37.48 99.8367 37.9067 100 38.3333 100C38.76 100 39.1867 99.8367 39.5117 99.5117L51.1783 87.845C51.4917 87.5333 51.6667 87.11 51.6667 86.6667V81.6667C51.6667 80.745 50.92 80 50 80ZM100 5V11.6667C100 12.5883 99.2533 13.3333 98.3333 13.3333H96.6667V68.3333C96.6667 72.9283 92.9283 76.6667 88.3333 76.6667H11.6667C7.07167 76.6667 3.33333 72.9283 3.33333 68.3333V18.3333C3.33333 17.4117 4.08 16.6667 5 16.6667C5.92 16.6667 6.66667 17.4117 6.66667 18.3333V68.3333C6.66667 71.09 8.91 73.3333 11.6667 73.3333H88.3333C91.09 73.3333 93.3333 71.09 93.3333 68.3333V11.6667C93.3333 10.745 94.08 10 95 10H96.6667V6.66667H3.33333V10H88.3333C89.2533 10 90 10.745 90 11.6667C90 12.5883 89.2533 13.3333 88.3333 13.3333H1.66667C0.746667 13.3333 0 12.5883 0 11.6667V5C0 4.07833 0.746667 3.33333 1.66667 3.33333H48.3333V1.66667C48.3333 0.745 49.08 0 50 0C50.92 0 51.6667 0.745 51.6667 1.66667V3.33333H98.3333C99.2533 3.33333 100 4.07833 100 5Z" fill="white" stroke="white"/>
</g>
<defs>
<clipPath id="clip0_15_30">
<rect width="100" height="100" fill="white"/>
</clipPath>
</defs>
</svg>
